name rise49.25peak52.1432fall72.8391.mot
datacolumns 19
datarows 27
range 18.31161000000000 18.35492500000000
endheader
time	ground_force1_vx	ground_force1_vy	ground_force1_vz	ground_force1_px	ground_force1_py	ground_force1_pz	ground_force2_vx	ground_force2_vy	ground_force2_vz	ground_force2_px	ground_force2_py	ground_force2_pz	ground_torque1_x	ground_torque1_y	ground_torque1_z	ground_torque2_x	ground_torque2_y	ground_torque2_z	
18.31161000000000	17.41654500000000	722.13864500000000	35.29366400000000	0.24458600000000	0.00000000000000	0.08556400000000	0.00000000000000	0.00000000000000	0.00000000000000	0.00000000000000	0.00000000000000	0.00000000000000	0.00000000000000	15.53502000000000	0.00000000000000	0.00000000000000	0.00000000000000	0.00000000000000	
18.31326700000000	17.08299300000000	722.81346399999995	35.28381400000000	0.24379700000000	0.00000000000000	0.08555900000000	0.00000000000000	0.00000000000000	0.00000000000000	0.00000000000000	0.00000000000000	0.00000000000000	0.00000000000000	15.56909500000000	0.00000000000000	0.00000000000000	0.00000000000000	0.00000000000000	
18.31492600000000	16.73982600000000	723.48377400000004	35.27489600000000	0.24298700000000	0.00000000000000	0.08555400000000	0.00000000000000	0.00000000000000	0.00000000000000	0.00000000000000	0.00000000000000	0.00000000000000	0.00000000000000	15.60490900000000	0.00000000000000	0.00000000000000	0.00000000000000	0.00000000000000	
18.31660600000000	16.38694300000000	724.14870800000006	35.26683400000000	0.24215700000000	0.00000000000000	0.08554900000000	0.00000000000000	0.00000000000000	0.00000000000000	0.00000000000000	0.00000000000000	0.00000000000000	0.00000000000000	15.64237800000000	0.00000000000000	0.00000000000000	0.00000000000000	0.00000000000000	
18.31826100000000	16.02427400000000	724.80750999999998	35.25956200000000	0.24130600000000	0.00000000000000	0.08554300000000	0.00000000000000	0.00000000000000	0.00000000000000	0.00000000000000	0.00000000000000	0.00000000000000	0.00000000000000	15.68142300000000	0.00000000000000	0.00000000000000	0.00000000000000	0.00000000000000	
18.31993000000000	15.65178400000000	725.45953999999995	35.25302400000000	0.24043400000000	0.00000000000000	0.08553800000000	0.00000000000000	0.00000000000000	0.00000000000000	0.00000000000000	0.00000000000000	0.00000000000000	0.00000000000000	15.72196600000000	0.00000000000000	0.00000000000000	0.00000000000000	0.00000000000000	
18.32159800000000	15.26946800000000	726.10427300000003	35.24717800000000	0.23954100000000	0.00000000000000	0.08553200000000	0.00000000000000	0.00000000000000	0.00000000000000	0.00000000000000	0.00000000000000	0.00000000000000	0.00000000000000	15.76393300000000	0.00000000000000	0.00000000000000	0.00000000000000	0.00000000000000	
18.32326100000000	14.87735500000000	726.74129900000003	35.24198900000000	0.23862800000000	0.00000000000000	0.08552600000000	0.00000000000000	0.00000000000000	0.00000000000000	0.00000000000000	0.00000000000000	0.00000000000000	0.00000000000000	15.80725400000000	0.00000000000000	0.00000000000000	0.00000000000000	0.00000000000000	
18.32493700000000	14.47550700000000	727.37032099999999	35.23743600000000	0.23769500000000	0.00000000000000	0.08551900000000	0.00000000000000	0.00000000000000	0.00000000000000	0.00000000000000	0.00000000000000	0.00000000000000	0.00000000000000	15.85185900000000	0.00000000000000	0.00000000000000	0.00000000000000	0.00000000000000	
18.32659400000000	14.06401800000000	727.99115700000004	35.23350800000000	0.23674200000000	0.00000000000000	0.08551300000000	0.00000000000000	0.00000000000000	0.00000000000000	0.00000000000000	0.00000000000000	0.00000000000000	0.00000000000000	15.89768400000000	0.00000000000000	0.00000000000000	0.00000000000000	0.00000000000000	
18.32826200000000	13.64301300000000	728.60373800000002	35.23020600000000	0.23577100000000	0.00000000000000	0.08550600000000	0.00000000000000	0.00000000000000	0.00000000000000	0.00000000000000	0.00000000000000	0.00000000000000	0.00000000000000	15.94466500000000	0.00000000000000	0.00000000000000	0.00000000000000	0.00000000000000	
18.32992700000000	13.21264900000000	729.20810500000005	35.22754000000000	0.23478100000000	0.00000000000000	0.08549900000000	0.00000000000000	0.00000000000000	0.00000000000000	0.00000000000000	0.00000000000000	0.00000000000000	0.00000000000000	15.99274300000000	0.00000000000000	0.00000000000000	0.00000000000000	0.00000000000000	
18.33161000000000	12.77311200000000	729.80440999999996	35.22553400000000	0.23377400000000	0.00000000000000	0.08549100000000	0.00000000000000	0.00000000000000	0.00000000000000	0.00000000000000	0.00000000000000	0.00000000000000	0.00000000000000	16.04185900000000	0.00000000000000	0.00000000000000	0.00000000000000	0.00000000000000	
18.33326400000000	12.32461900000000	730.39291100000003	35.22422200000000	0.23275000000000	0.00000000000000	0.08548300000000	0.00000000000000	0.00000000000000	0.00000000000000	0.00000000000000	0.00000000000000	0.00000000000000	0.00000000000000	16.09195700000000	0.00000000000000	0.00000000000000	0.00000000000000	0.00000000000000	
18.33492500000000	11.86741500000000	730.97397300000000	35.22364800000000	0.23171000000000	0.00000000000000	0.08547400000000	0.00000000000000	0.00000000000000	0.00000000000000	0.00000000000000	0.00000000000000	0.00000000000000	0.00000000000000	16.14298400000000	0.00000000000000	0.00000000000000	0.00000000000000	0.00000000000000	
18.33659500000000	11.40177200000000	731.54805899999997	35.22386700000000	0.23065600000000	0.00000000000000	0.08546500000000	0.00000000000000	0.00000000000000	0.00000000000000	0.00000000000000	0.00000000000000	0.00000000000000	0.00000000000000	16.19488800000000	0.00000000000000	0.00000000000000	0.00000000000000	0.00000000000000	
18.33826300000000	10.92798800000000	732.11573399999997	35.22494600000000	0.22958800000000	0.00000000000000	0.08545600000000	0.00000000000000	0.00000000000000	0.00000000000000	0.00000000000000	0.00000000000000	0.00000000000000	0.00000000000000	16.24761800000000	0.00000000000000	0.00000000000000	0.00000000000000	0.00000000000000	
18.33993100000000	10.44638400000000	732.67765699999995	35.22696200000000	0.22850800000000	0.00000000000000	0.08544500000000	0.00000000000000	0.00000000000000	0.00000000000000	0.00000000000000	0.00000000000000	0.00000000000000	0.00000000000000	16.30112500000000	0.00000000000000	0.00000000000000	0.00000000000000	0.00000000000000	
18.34159900000000	9.95730800000000	733.23457599999995	35.23000200000000	0.22741700000000	0.00000000000000	0.08543400000000	0.00000000000000	0.00000000000000	0.00000000000000	0.00000000000000	0.00000000000000	0.00000000000000	0.00000000000000	16.35536200000000	0.00000000000000	0.00000000000000	0.00000000000000	0.00000000000000	
18.34325700000000	9.46112400000000	733.78732600000001	35.23416400000000	0.22631600000000	0.00000000000000	0.08542300000000	0.00000000000000	0.00000000000000	0.00000000000000	0.00000000000000	0.00000000000000	0.00000000000000	0.00000000000000	16.41028300000000	0.00000000000000	0.00000000000000	0.00000000000000	0.00000000000000	
18.34493300000000	8.95822000000000	734.33682499999998	35.23955500000000	0.22520600000000	0.00000000000000	0.08541100000000	0.00000000000000	0.00000000000000	0.00000000000000	0.00000000000000	0.00000000000000	0.00000000000000	0.00000000000000	16.46584100000000	0.00000000000000	0.00000000000000	0.00000000000000	0.00000000000000	
18.34659500000000	8.44900000000000	734.88406399999997	35.24629300000000	0.22408900000000	0.00000000000000	0.08539800000000	0.00000000000000	0.00000000000000	0.00000000000000	0.00000000000000	0.00000000000000	0.00000000000000	0.00000000000000	16.52199200000000	0.00000000000000	0.00000000000000	0.00000000000000	0.00000000000000	
18.34826500000000	7.93388300000000	735.43010800000002	35.25450500000000	0.22296600000000	0.00000000000000	0.08538400000000	0.00000000000000	0.00000000000000	0.00000000000000	0.00000000000000	0.00000000000000	0.00000000000000	0.00000000000000	16.57869200000000	0.00000000000000	0.00000000000000	0.00000000000000	0.00000000000000	
18.34992600000000	7.41330300000000	735.97608400000001	35.26432600000000	0.22183900000000	0.00000000000000	0.08536900000000	0.00000000000000	0.00000000000000	0.00000000000000	0.00000000000000	0.00000000000000	0.00000000000000	0.00000000000000	16.63589700000000	0.00000000000000	0.00000000000000	0.00000000000000	0.00000000000000	
18.35161000000000	6.88770700000000	736.52318000000002	35.27590200000000	0.22070800000000	0.00000000000000	0.08535400000000	0.00000000000000	0.00000000000000	0.00000000000000	0.00000000000000	0.00000000000000	0.00000000000000	0.00000000000000	16.69356300000000	0.00000000000000	0.00000000000000	0.00000000000000	0.00000000000000	
18.35326400000000	6.35754900000000	737.07263499999999	35.28938400000000	0.21957400000000	0.00000000000000	0.08533800000000	0.00000000000000	0.00000000000000	0.00000000000000	0.00000000000000	0.00000000000000	0.00000000000000	0.00000000000000	16.75164600000000	0.00000000000000	0.00000000000000	0.00000000000000	0.00000000000000	
18.35492500000000	5.82329200000000	737.62573499999996	35.30493500000000	0.21844000000000	0.00000000000000	0.08532100000000	0.00000000000000	0.00000000000000	0.00000000000000	0.00000000000000	0.00000000000000	0.00000000000000	0.00000000000000	16.81010500000000	0.00000000000000	0.00000000000000	0.00000000000000	0.00000000000000	
